<svg version="1.1" id="Layer_1" xmlns="http://www.w3.org/2000/svg" xmlns:xlink="http://www.w3.org/1999/xlink" x="0px" y="0px"
	 width="100%" viewBox="0 0 1022 1022" enable-background="new 0 0 1022 1022" xml:space="preserve">
<path fill="#000000" opacity="1.000000" stroke="none" 
	d="
M1.000000,272.000000 
	C1.000000,181.333344 1.000000,91.166687 1.000000,1.000024 
	C341.666595,1.000016 682.333191,1.000016 1022.999878,1.000008 
	C1022.999878,341.666565 1022.999878,682.333130 1022.999939,1022.999756 
	C682.333496,1022.999878 341.666931,1022.999878 1.000199,1022.999939 
	C1.000000,772.833313 1.000000,522.666687 1.000000,272.000000 
M64.923103,272.399750 
	C64.740646,272.678070 64.533592,272.943420 64.379204,273.236511 
	C30.044926,338.419800 10.158172,407.633606 5.813891,481.296082 
	C4.034740,511.463776 4.698827,541.537964 8.193603,571.501282 
	C11.297339,598.111938 16.428774,624.392700 23.984022,650.137390 
	C60.736160,775.371338 134.061890,873.275452 244.493729,942.790466 
	C319.232147,989.836914 401.359741,1014.485535 489.467957,1018.768494 
	C515.220947,1020.020325 541.119934,1019.927979 566.713257,1015.976624 
	C590.054932,1012.372864 613.659912,1009.449097 636.465149,1003.572449 
	C741.229309,976.575928 829.008118,921.916199 899.236572,839.382751 
	C930.755981,802.340759 956.230408,761.491943 975.854858,717.052307 
	C993.127075,677.939392 1005.886963,637.366028 1011.978088,594.962097 
	C1015.012939,573.834290 1017.783813,552.562500 1018.750793,531.268494 
	C1020.221985,498.869476 1018.242188,466.539520 1013.151733,434.395386 
	C1008.758972,406.656891 1002.585327,379.371613 993.563721,352.830017 
	C953.839783,235.962540 881.825073,144.412277 776.807983,79.415329 
	C703.114746,33.805275 622.490417,9.557861 536.009033,5.224998 
	C509.401825,3.891933 482.767334,4.752774 456.199707,7.785595 
	C423.460968,11.522879 391.378662,18.113581 359.983063,28.019848 
	C283.773407,52.066311 216.891037,91.892624 159.349030,147.313446 
	C121.447281,183.818024 90.246552,225.455215 64.923103,272.399750 
z"/>
<path fill="#ECE759" opacity="1.000000" stroke="none" 
	d="
M65.041336,272.046509 
	C90.246552,225.455215 121.447281,183.818024 159.349030,147.313446 
	C216.891037,91.892624 283.773407,52.066311 359.983063,28.019848 
	C391.378662,18.113581 423.460968,11.522879 456.199707,7.785595 
	C482.767334,4.752774 509.401825,3.891933 536.009033,5.224998 
	C622.490417,9.557861 703.114746,33.805275 776.807983,79.415329 
	C881.825073,144.412277 953.839783,235.962540 993.563721,352.830017 
	C1002.585327,379.371613 1008.758972,406.656891 1013.151733,434.395386 
	C1018.242188,466.539520 1020.221985,498.869476 1018.750793,531.268494 
	C1017.783813,552.562500 1015.012939,573.834290 1011.978088,594.962097 
	C1005.886963,637.366028 993.127075,677.939392 975.854858,717.052307 
	C956.230408,761.491943 930.755981,802.340759 899.236572,839.382751 
	C829.008118,921.916199 741.229309,976.575928 636.465149,1003.572449 
	C613.659912,1009.449097 590.054932,1012.372864 566.713257,1015.976624 
	C541.119934,1019.927979 515.220947,1020.020325 489.467957,1018.768494 
	C401.359741,1014.485535 319.232147,989.836914 244.493729,942.790466 
	C134.061890,873.275452 60.736160,775.371338 23.984022,650.137390 
	C16.428774,624.392700 11.297339,598.111938 8.193603,571.501282 
	C4.698827,541.537964 4.034740,511.463776 5.813891,481.296082 
	C10.158172,407.633606 30.044926,338.419800 64.379204,273.236511 
	C64.533592,272.943420 64.740646,272.678070 65.041336,272.046509 
M283.138428,79.662125 
	C246.580627,98.960274 212.985046,122.504478 182.480698,150.387772 
	C54.087097,267.749329 -2.334343,441.787598 33.968914,611.629883 
	C58.986256,728.671814 119.635094,823.962769 214.083618,897.294128 
	C282.278900,950.241943 359.620117,982.213196 445.186401,994.229919 
	C507.465088,1002.976257 569.154663,999.795959 630.057739,984.423828 
	C728.992859,959.452209 812.672424,908.871582 880.124878,832.257141 
	C945.965759,757.473145 984.936340,670.204468 997.808594,571.459412 
	C1005.309570,513.918396 1002.382080,456.708527 988.890930,400.248108 
	C962.935486,291.624451 906.772522,201.632874 819.946899,131.395676 
	C742.816345,69.001167 654.350708,33.755695 555.503479,24.743710 
	C510.097015,20.603956 465.005280,22.943907 420.230804,31.501755 
	C372.372559,40.649010 326.916992,56.670231 283.138428,79.662125 
z"/>
<path fill="#0A0B0A" opacity="1.000000" stroke="none" 
	d="
M283.450592,79.462387 
	C326.916992,56.670231 372.372559,40.649010 420.230804,31.501755 
	C465.005280,22.943907 510.097015,20.603956 555.503479,24.743710 
	C654.350708,33.755695 742.816345,69.001167 819.946899,131.395676 
	C906.772522,201.632874 962.935486,291.624451 988.890930,400.248108 
	C1002.382080,456.708527 1005.309570,513.918396 997.808594,571.459412 
	C984.936340,670.204468 945.965759,757.473145 880.124878,832.257141 
	C812.672424,908.871582 728.992859,959.452209 630.057739,984.423828 
	C569.154663,999.795959 507.465088,1002.976257 445.186401,994.229919 
	C359.620117,982.213196 282.278900,950.241943 214.083618,897.294128 
	C119.635094,823.962769 58.986256,728.671814 33.968914,611.629883 
	C-2.334343,441.787598 54.087097,267.749329 182.480698,150.387772 
	C212.985046,122.504478 246.580627,98.960274 283.450592,79.462387 
M192.989166,875.528076 
	C274.984253,946.060364 370.038696,985.314880 477.738007,993.794617 
	C518.776917,997.025818 559.630859,994.538635 600.135864,986.999329 
	C691.334900,970.024231 771.823425,930.862915 840.005859,868.052429 
	C932.362122,782.972656 984.365173,677.370972 996.186218,552.197632 
	C1000.524963,506.254272 997.935730,460.602356 988.616089,415.483093 
	C967.184021,311.723999 917.878784,223.305695 839.027527,152.461258 
	C741.676819,64.995865 626.861084,23.401726 495.965820,26.739595 
	C443.231354,28.084339 392.083069,38.177738 342.787872,56.901321 
	C227.416183,100.722427 140.172440,177.016922 82.269165,285.961182 
	C39.840012,365.791046 22.220171,451.339264 27.781179,541.635254 
	C30.147192,580.053040 37.011314,617.636597 48.575294,654.317566 
	C75.985504,741.262756 124.007637,814.830688 192.989166,875.528076 
z"/>
<path fill="#314E94" opacity="1.000000" stroke="none" 
	d="
M192.725006,875.289673 
	C124.007637,814.830688 75.985504,741.262756 48.575294,654.317566 
	C37.011314,617.636597 30.147192,580.053040 27.781179,541.635254 
	C22.220171,451.339264 39.840012,365.791046 82.269165,285.961182 
	C140.172440,177.016922 227.416183,100.722427 342.787872,56.901321 
	C392.083069,38.177738 443.231354,28.084339 495.965820,26.739595 
	C626.861084,23.401726 741.676819,64.995865 839.027527,152.461258 
	C917.878784,223.305695 967.184021,311.723999 988.616089,415.483093 
	C997.935730,460.602356 1000.524963,506.254272 996.186218,552.197632 
	C984.365173,677.370972 932.362122,782.972656 840.005859,868.052429 
	C771.823425,930.862915 691.334900,970.024231 600.135864,986.999329 
	C559.630859,994.538635 518.776917,997.025818 477.738007,993.794617 
	C370.038696,985.314880 274.984253,946.060364 192.725006,875.289673 
M389.092224,633.649597 
	C455.774139,584.381287 522.444702,535.097656 589.145447,485.854828 
	C607.352295,472.413361 625.650146,459.095062 644.306763,446.367249 
	C652.569885,469.185791 655.044739,491.538696 645.687073,515.314636 
	C632.333252,549.243591 614.689514,580.548828 593.989197,610.305908 
	C572.203674,641.622925 549.977722,672.635193 528.346008,704.057251 
	C512.666687,726.832886 497.728363,750.117371 482.273621,773.049561 
	C477.624451,779.948120 471.450195,785.940125 467.539886,793.191467 
	C457.627167,811.573914 444.460663,827.386719 430.777313,842.899719 
	C424.107574,850.461365 417.570892,858.140442 410.798553,865.969055 
	C412.595001,867.523621 413.801117,868.567322 415.132965,869.719849 
	C416.680267,868.417786 417.944702,867.359375 419.203125,866.293884 
	C434.078278,853.698608 448.151245,839.969849 464.002594,828.754578 
	C492.383942,808.673706 524.111633,794.446106 555.851501,780.509155 
	C568.408325,774.995483 581.450012,770.691467 595.355774,770.722778 
	C610.431702,770.756775 623.928345,774.732910 633.512451,787.639404 
	C644.436096,802.349731 655.394958,817.044678 666.770508,831.404114 
	C672.281189,838.360229 678.778625,844.534668 685.336975,851.610779 
	C683.708252,834.058533 682.713562,817.663879 680.552979,801.424377 
	C677.534485,778.735962 688.678589,761.836182 702.627563,746.459656 
	C709.131714,739.289978 717.577209,733.639893 725.803833,728.324097 
	C743.561340,716.849548 761.747986,706.039307 779.752258,694.946289 
	C781.280457,694.004639 782.757751,692.980408 784.258728,691.994568 
	C784.062012,691.419373 783.865295,690.844177 783.668579,690.269043 
	C759.919861,691.475708 736.141052,692.269958 712.430420,693.998474 
	C685.637939,695.951782 661.594482,687.346191 637.997620,676.354004 
	C637.378357,676.065552 636.686218,675.933411 636.028076,675.728394 
	C636.052002,675.149658 636.075989,674.570984 636.099915,673.992249 
	C637.344849,673.156067 638.763977,672.494995 639.807983,671.456726 
	C651.032227,660.294861 662.281189,649.155151 673.329285,637.820251 
	C676.792053,634.267639 680.155579,630.441162 682.723938,626.227661 
	C689.831543,614.566956 696.505676,602.641724 703.333679,590.810913 
	C720.084351,561.787292 736.091858,532.398560 747.068604,500.581665 
	C748.526917,496.354767 750.397888,492.026611 750.635803,487.666656 
	C751.443298,472.867828 752.034729,458.029694 751.898376,443.214050 
	C751.740845,426.087830 751.220093,408.930145 749.865784,391.864807 
	C749.220398,383.731720 746.892883,375.566681 744.183289,367.816071 
	C742.082031,361.805634 738.205139,356.415924 734.969421,350.478546 
	C752.792542,337.258850 770.487488,324.134247 789.213135,310.245087 
	C787.922363,323.850342 786.770630,335.989532 785.618896,348.128723 
	C786.058533,348.283813 786.498230,348.438904 786.937927,348.593994 
	C807.958557,317.399200 828.979187,286.204407 850.709961,253.955765 
	C811.424438,261.544037 773.495483,268.870300 735.566467,276.196533 
	C735.528503,276.582947 735.490479,276.969360 735.452454,277.355743 
	C747.769165,281.188110 760.085815,285.020477 773.295593,289.130737 
	C756.451538,301.681244 740.418945,313.318665 724.785217,325.469269 
	C720.266296,328.981476 717.312134,329.137146 713.918152,324.621704 
	C712.840881,323.188477 711.328491,321.986206 709.807495,320.997864 
	C697.952637,313.294128 685.822632,305.992401 674.207397,297.946045 
	C654.647461,284.396027 632.889221,276.456360 609.771912,272.111298 
	C591.140503,268.609406 572.377869,265.769196 553.618347,263.010345 
	C548.601868,262.272614 543.291870,262.296997 538.277222,263.046265 
	C528.906555,264.446411 519.584656,266.353943 510.382080,268.618042 
	C506.164215,269.655762 501.760315,271.351044 498.330902,273.931183 
	C484.621826,284.245087 470.972412,294.678436 457.838806,305.708038 
	C436.275909,323.816589 415.136383,342.429199 393.798798,360.806580 
	C392.496826,361.927887 391.024261,362.851074 389.113220,364.243896 
	C388.935425,362.403015 388.757690,361.443726 388.762634,360.485352 
	C388.899261,334.014130 388.977325,307.542267 389.244049,281.072266 
	C389.352722,270.286896 385.697205,266.778473 375.479370,268.659821 
	C348.707001,273.589142 324.018280,284.544983 299.390900,295.498291 
	C292.185944,298.702759 285.202423,301.098053 277.310852,300.255463 
	C266.716492,299.124298 256.120056,298.012482 245.527496,296.864746 
	C241.987854,296.481262 239.966736,294.398804 238.726837,291.105316 
	C237.088745,286.754272 235.484070,282.323669 233.220108,278.289124 
	C228.430191,269.753052 228.073761,269.788147 219.417603,273.874298 
	C218.062485,274.513977 216.652481,275.080048 215.397690,275.882996 
	C201.380615,284.852966 187.624710,294.259521 173.325806,302.752777 
	C158.372559,311.634674 146.848907,323.905121 136.439148,337.440491 
	C135.577225,338.561188 135.478333,341.667755 136.330566,342.477509 
	C141.344269,347.241119 146.182449,352.622772 152.128128,355.885986 
	C166.451172,363.747070 182.312057,367.569427 198.475372,368.854523 
	C222.536621,370.767548 246.677444,371.691620 270.788483,372.958893 
	C277.458374,373.309448 285.032440,380.739258 285.033752,387.362152 
	C285.050873,474.526276 285.069977,561.690430 284.901550,648.854187 
	C284.897339,651.037415 283.294373,653.895508 281.528839,655.283997 
	C272.233826,662.593750 262.569427,669.432068 253.211075,676.664124 
	C250.633469,678.655945 248.599960,678.971741 245.579407,677.643372 
	C233.848373,672.484436 222.018616,667.542603 210.130157,662.757080 
	C208.402252,662.061523 205.778488,661.939270 204.209244,662.766235 
	C192.866928,668.743469 181.682434,675.020996 170.472321,681.247131 
	C169.574829,681.745605 168.859680,682.572266 167.629471,683.609009 
	C182.955154,689.869873 197.695206,695.891479 213.062469,702.169373 
	C205.802292,708.455017 199.029297,714.096619 192.542038,720.049561 
	C190.092712,722.297180 188.206299,722.237549 185.531265,720.654358 
	C175.928848,714.971313 166.192230,709.515503 156.560287,703.881470 
	C154.380646,702.606506 152.684433,702.213135 150.238937,703.734680 
	C138.219116,711.213318 126.032211,718.423096 113.925400,725.762695 
	C112.881752,726.395447 111.991989,727.282104 110.639038,728.364075 
	C113.061188,729.405701 114.869888,730.224731 116.709198,730.968079 
	C134.146423,738.015991 151.583908,745.063354 169.035233,752.076294 
	C171.582535,753.099976 173.725983,754.045837 173.979538,757.471313 
	C174.851746,769.254395 175.985947,781.018921 177.096115,792.783264 
	C177.840591,800.672607 178.713379,808.549805 179.615814,817.274170 
	C189.546219,811.797363 198.751358,806.552490 208.130981,801.640747 
	C211.322601,799.969421 212.063202,798.097778 211.613693,794.553772 
	C209.499222,777.882629 207.718994,761.168518 205.907913,744.460205 
	C205.757095,743.068909 205.729996,741.033936 206.550858,740.267090 
	C213.292633,733.968201 220.249008,727.898987 227.819397,721.155090 
	C231.501678,739.138245 234.955826,756.007263 238.577347,773.693665 
	C247.986725,768.994934 256.659821,764.507385 265.485443,760.343201 
	C268.500000,758.920837 268.906525,757.222229 268.508148,754.095886 
	C266.447174,737.920898 264.657776,721.710388 262.920746,705.496460 
	C262.746094,703.866333 262.970825,701.399475 264.010071,700.562500 
	C270.555878,695.291138 277.384491,690.370972 284.227783,685.253906 
	C284.688232,686.195740 284.938568,686.471130 284.942871,686.750244 
	C285.381409,715.072449 285.959778,743.363892 279.910309,771.347717 
	C275.677277,790.929077 268.562622,808.997925 257.930603,826.139954 
	C249.420563,839.860779 243.340469,855.088745 236.181915,869.647766 
	C236.657806,869.957703 237.133682,870.267639 237.609573,870.577637 
	C238.976715,869.792358 240.397049,869.086426 241.703079,868.210144 
	C262.589630,854.195801 283.653351,840.435242 304.294952,826.068420 
	C341.307678,800.307129 376.485352,771.629028 419.180145,755.047058 
	C420.246063,754.633118 421.630951,752.227539 421.290741,751.582886 
	C420.549133,750.177734 418.845581,748.451477 417.437225,748.359741 
	C407.300049,747.699402 397.140350,747.353149 386.983765,747.035156 
	C381.097748,746.850830 379.499725,745.910950 379.092621,739.987610 
	C378.741791,734.882690 379.104187,729.685303 379.602264,724.572754 
	C382.537659,694.442017 385.605042,664.324097 389.092224,633.649597 
z"/>
<path fill="#EEE85A" opacity="1.000000" stroke="none" 
	d="
M643.906250,445.720215 
	C625.650146,459.095062 607.352295,472.413361 589.145447,485.854828 
	C522.444702,535.097656 455.774139,584.381287 388.577026,634.055603 
	C386.301971,636.628357 383.259277,638.640747 382.977356,640.985168 
	C379.521027,669.726807 376.439178,698.513794 373.332825,727.296875 
	C372.523621,734.794983 372.167908,742.277527 376.329773,749.139954 
	C377.912231,751.749207 379.779022,753.071533 383.150208,752.925781 
	C390.735504,752.598083 398.344635,752.823059 405.944061,752.823059 
	C405.985565,753.343872 406.027069,753.864624 406.068573,754.385437 
	C404.650696,755.124695 403.204834,755.815247 401.819214,756.610718 
	C385.252319,766.120911 368.085693,774.739746 352.261566,785.358459 
	C319.920441,807.060974 288.306610,829.847107 256.377502,852.164490 
	C254.192642,853.691589 251.877029,855.031677 249.622253,856.458801 
	C249.127106,856.031189 248.631943,855.603638 248.136795,855.176086 
	C254.748825,843.708740 261.288910,832.199158 267.988281,820.783142 
	C280.640411,799.223267 286.584106,775.463684 288.754120,751.012817 
	C290.678497,729.329773 290.314941,707.436157 290.696106,685.630920 
	C290.760071,681.972351 291.574738,679.642639 294.654785,677.357971 
	C434.224792,573.830139 573.718567,470.199493 713.225525,366.586609 
	C718.763977,362.473206 724.342957,358.414459 730.035095,354.233185 
	C736.301697,363.715210 742.180054,372.798737 743.496338,383.593201 
	C744.922974,395.292297 745.829834,407.124268 745.895996,418.904266 
	C746.010193,439.216553 745.504517,459.540497 744.809326,479.844177 
	C744.597351,486.036072 743.448730,492.330170 741.755188,498.301239 
	C739.859070,504.986420 736.993347,511.414490 734.314575,517.856750 
	C718.609985,555.626038 696.871216,590.170166 676.627319,625.511475 
	C676.056641,626.507690 675.250000,627.399414 674.431946,628.218628 
	C659.720520,642.950256 644.993347,657.666077 630.259644,672.375366 
	C628.913452,673.719360 627.499695,674.995789 625.589600,676.802856 
	C634.430481,680.838501 642.426880,684.970520 650.772461,688.200317 
	C669.624573,695.496155 688.798523,701.424011 709.483521,699.866516 
	C725.068481,698.692993 740.678711,697.851562 756.280762,696.911926 
	C758.673401,696.767944 761.082092,696.891846 763.483398,696.891846 
	C762.279358,698.642883 760.916443,699.460571 759.570129,700.304749 
	C747.030640,708.168518 734.146057,715.541382 722.049133,724.035767 
	C708.486084,733.559631 695.287903,743.375244 686.171997,758.125732 
	C678.522827,770.503052 673.608032,782.943726 674.714294,797.518799 
	C674.966309,800.839783 675.221924,804.160522 675.464233,807.482239 
	C676.100342,816.202515 676.730042,824.923279 677.459900,834.989075 
	C675.147156,832.451294 673.625122,831.009460 672.367493,829.365479 
	C660.227356,813.497498 648.371155,797.403442 635.869995,781.826416 
	C632.355408,777.447083 627.400818,773.765137 622.388123,771.130737 
	C606.243896,762.645813 588.992188,762.694519 572.467712,768.857422 
	C552.276001,776.388000 532.446045,785.074707 513.023804,794.432251 
	C491.479431,804.812317 469.812378,815.243164 451.447296,831.091492 
	C450.702026,831.734680 449.470123,831.813843 448.301697,832.211365 
	C454.550385,823.333252 460.628143,814.844971 466.546204,806.246826 
	C472.099670,798.178406 477.411469,789.943665 482.963379,781.874207 
	C488.530487,773.782715 494.373016,765.880127 499.904327,757.764832 
	C525.306335,720.496216 550.641113,683.181702 576.001404,645.884583 
	C589.851990,625.514709 604.033264,605.360352 617.471375,584.721985 
	C632.962036,560.931091 644.347900,535.102356 654.184326,508.491943 
	C659.736206,493.472412 657.948975,478.634064 655.293396,463.703766 
	C653.989258,456.371643 651.406067,449.267029 649.190979,441.301941 
	C646.681213,443.400208 645.293701,444.560211 643.906250,445.720215 
z"/>
<path fill="#030303" opacity="1.000000" stroke="none" 
	d="
M644.106506,446.043732 
	C645.293701,444.560211 646.681213,443.400208 649.190979,441.301941 
	C651.406067,449.267029 653.989258,456.371643 655.293396,463.703766 
	C657.948975,478.634064 659.736206,493.472412 654.184326,508.491943 
	C644.347900,535.102356 632.962036,560.931091 617.471375,584.721985 
	C604.033264,605.360352 589.851990,625.514709 576.001404,645.884583 
	C550.641113,683.181702 525.306335,720.496216 499.904327,757.764832 
	C494.373016,765.880127 488.530487,773.782715 482.963379,781.874207 
	C477.411469,789.943665 472.099670,798.178406 466.546204,806.246826 
	C460.628143,814.844971 454.550385,823.333252 448.301697,832.211365 
	C449.470123,831.813843 450.702026,831.734680 451.447296,831.091492 
	C469.812378,815.243164 491.479431,804.812317 513.023804,794.432251 
	C532.446045,785.074707 552.276001,776.388000 572.467712,768.857422 
	C588.992188,762.694519 606.243896,762.645813 622.388123,771.130737 
	C627.400818,773.765137 632.355408,777.447083 635.869995,781.826416 
	C648.371155,797.403442 660.227356,813.497498 672.367493,829.365479 
	C673.625122,831.009460 675.147156,832.451294 677.459900,834.989075 
	C676.730042,824.923279 676.100342,816.202515 675.464233,807.482239 
	C675.221924,804.160522 674.966309,800.839783 674.714294,797.518799 
	C673.608032,782.943726 678.522827,770.503052 686.171997,758.125732 
	C695.287903,743.375244 708.486084,733.559631 722.049133,724.035767 
	C734.146057,715.541382 747.030640,708.168518 759.570129,700.304749 
	C760.916443,699.460571 762.279358,698.642883 763.483398,696.891846 
	C761.082092,696.891846 758.673401,696.767944 756.280762,696.911926 
	C740.678711,697.851562 725.068481,698.692993 709.483521,699.866516 
	C688.798523,701.424011 669.624573,695.496155 650.772461,688.200317 
	C642.426880,684.970520 634.430481,680.838501 625.589600,676.802856 
	C627.499695,674.995789 628.913452,673.719360 630.259644,672.375366 
	C644.993347,657.666077 659.720520,642.950256 674.431946,628.218628 
	C675.250000,627.399414 676.056641,626.507690 676.627319,625.511475 
	C696.871216,590.170166 718.609985,555.626038 734.314575,517.856750 
	C736.993347,511.414490 739.859070,504.986420 741.755188,498.301239 
	C743.448730,492.330170 744.597351,486.036072 744.809326,479.844177 
	C745.504517,459.540497 746.010193,439.216553 745.895996,418.904266 
	C745.829834,407.124268 744.922974,395.292297 743.496338,383.593201 
	C742.180054,372.798737 736.301697,363.715210 730.035095,354.233185 
	C724.342957,358.414459 718.763977,362.473206 713.225525,366.586609 
	C573.718567,470.199493 434.224792,573.830139 294.654785,677.357971 
	C291.574738,679.642639 290.760071,681.972351 290.696106,685.630920 
	C290.314941,707.436157 290.678497,729.329773 288.754120,751.012817 
	C286.584106,775.463684 280.640411,799.223267 267.988281,820.783142 
	C261.288910,832.199158 254.748825,843.708740 248.136795,855.176086 
	C248.631943,855.603638 249.127106,856.031189 249.622253,856.458801 
	C251.877029,855.031677 254.192642,853.691589 256.377502,852.164490 
	C288.306610,829.847107 319.920441,807.060974 352.261566,785.358459 
	C368.085693,774.739746 385.252319,766.120911 401.819214,756.610718 
	C403.204834,755.815247 404.650696,755.124695 406.068573,754.385437 
	C406.027069,753.864624 405.985565,753.343872 405.944061,752.823059 
	C398.344635,752.823059 390.735504,752.598083 383.150208,752.925781 
	C379.779022,753.071533 377.912231,751.749207 376.329773,749.139954 
	C372.167908,742.277527 372.523621,734.794983 373.332825,727.296875 
	C376.439178,698.513794 379.521027,669.726807 382.977356,640.985168 
	C383.259277,638.640747 386.301971,636.628357 388.344910,634.331787 
	C385.605042,664.324097 382.537659,694.442017 379.602264,724.572754 
	C379.104187,729.685303 378.741791,734.882690 379.092621,739.987610 
	C379.499725,745.910950 381.097748,746.850830 386.983765,747.035156 
	C397.140350,747.353149 407.300049,747.699402 417.437225,748.359741 
	C418.845581,748.451477 420.549133,750.177734 421.290741,751.582886 
	C421.630951,752.227539 420.246063,754.633118 419.180145,755.047058 
	C376.485352,771.629028 341.307678,800.307129 304.294952,826.068420 
	C283.653351,840.435242 262.589630,854.195801 241.703079,868.210144 
	C240.397049,869.086426 238.976715,869.792358 237.609573,870.577637 
	C237.133682,870.267639 236.657806,869.957703 236.181915,869.647766 
	C243.340469,855.088745 249.420563,839.860779 257.930603,826.139954 
	C268.562622,808.997925 275.677277,790.929077 279.910309,771.347717 
	C285.959778,743.363892 285.381409,715.072449 284.942871,686.750244 
	C284.938568,686.471130 284.688232,686.195740 284.227783,685.253906 
	C277.384491,690.370972 270.555878,695.291138 264.010071,700.562500 
	C262.970825,701.399475 262.746094,703.866333 262.920746,705.496460 
	C264.657776,721.710388 266.447174,737.920898 268.508148,754.095886 
	C268.906525,757.222229 268.500000,758.920837 265.485443,760.343201 
	C256.659821,764.507385 247.986725,768.994934 238.577347,773.693665 
	C234.955826,756.007263 231.501678,739.138245 227.819397,721.155090 
	C220.249008,727.898987 213.292633,733.968201 206.550858,740.267090 
	C205.729996,741.033936 205.757095,743.068909 205.907913,744.460205 
	C207.718994,761.168518 209.499222,777.882629 211.613693,794.553772 
	C212.063202,798.097778 211.322601,799.969421 208.130981,801.640747 
	C198.751358,806.552490 189.546219,811.797363 179.615814,817.274170 
	C178.713379,808.549805 177.840591,800.672607 177.096115,792.783264 
	C175.985947,781.018921 174.851746,769.254395 173.979538,757.471313 
	C173.725983,754.045837 171.582535,753.099976 169.035233,752.076294 
	C151.583908,745.063354 134.146423,738.015991 116.709198,730.968079 
	C114.869888,730.224731 113.061188,729.405701 110.639038,728.364075 
	C111.991989,727.282104 112.881752,726.395447 113.925400,725.762695 
	C126.032211,718.423096 138.219116,711.213318 150.238937,703.734680 
	C152.684433,702.213135 154.380646,702.606506 156.560287,703.881470 
	C166.192230,709.515503 175.928848,714.971313 185.531265,720.654358 
	C188.206299,722.237549 190.092712,722.297180 192.542038,720.049561 
	C199.029297,714.096619 205.802292,708.455017 213.062469,702.169373 
	C197.695206,695.891479 182.955154,689.869873 167.629471,683.609009 
	C168.859680,682.572266 169.574829,681.745605 170.472321,681.247131 
	C181.682434,675.020996 192.866928,668.743469 204.209244,662.766235 
	C205.778488,661.939270 208.402252,662.061523 210.130157,662.757080 
	C222.018616,667.542603 233.848373,672.484436 245.579407,677.643372 
	C248.599960,678.971741 250.633469,678.655945 253.211075,676.664124 
	C262.569427,669.432068 272.233826,662.593750 281.528839,655.283997 
	C283.294373,653.895508 284.897339,651.037415 284.901550,648.854187 
	C285.069977,561.690430 285.050873,474.526276 285.033752,387.362152 
	C285.032440,380.739258 277.458374,373.309448 270.788483,372.958893 
	C246.677444,371.691620 222.536621,370.767548 198.475372,368.854523 
	C182.312057,367.569427 166.451172,363.747070 152.128128,355.885986 
	C146.182449,352.622772 141.344269,347.241119 136.330566,342.477509 
	C135.478333,341.667755 135.577225,338.561188 136.439148,337.440491 
	C146.848907,323.905121 158.372559,311.634674 173.325806,302.752777 
	C187.624710,294.259521 201.380615,284.852966 215.397690,275.882996 
	C216.652481,275.080048 218.062485,274.513977 219.417603,273.874298 
	C228.073761,269.788147 228.430191,269.753052 233.220108,278.289124 
	C235.484070,282.323669 237.088745,286.754272 238.726837,291.105316 
	C239.966736,294.398804 241.987854,296.481262 245.527496,296.864746 
	C256.120056,298.012482 266.716492,299.124298 277.310852,300.255463 
	C285.202423,301.098053 292.185944,298.702759 299.390900,295.498291 
	C324.018280,284.544983 348.707001,273.589142 375.479370,268.659821 
	C385.697205,266.778473 389.352722,270.286896 389.244049,281.072266 
	C388.977325,307.542267 388.899261,334.014130 388.762634,360.485352 
	C388.757690,361.443726 388.935425,362.403015 389.113220,364.243896 
	C391.024261,362.851074 392.496826,361.927887 393.798798,360.806580 
	C415.136383,342.429199 436.275909,323.816589 457.838806,305.708038 
	C470.972412,294.678436 484.621826,284.245087 498.330902,273.931183 
	C501.760315,271.351044 506.164215,269.655762 510.382080,268.618042 
	C519.584656,266.353943 528.906555,264.446411 538.277222,263.046265 
	C543.291870,262.296997 548.601868,262.272614 553.618347,263.010345 
	C572.377869,265.769196 591.140503,268.609406 609.771912,272.111298 
	C632.889221,276.456360 654.647461,284.396027 674.207397,297.946045 
	C685.822632,305.992401 697.952637,313.294128 709.807495,320.997864 
	C711.328491,321.986206 712.840881,323.188477 713.918152,324.621704 
	C717.312134,329.137146 720.266296,328.981476 724.785217,325.469269 
	C740.418945,313.318665 756.451538,301.681244 773.295593,289.130737 
	C760.085815,285.020477 747.769165,281.188110 735.452454,277.355743 
	C735.490479,276.969360 735.528503,276.582947 735.566467,276.196533 
	C773.495483,268.870300 811.424438,261.544037 850.709961,253.955765 
	C828.979187,286.204407 807.958557,317.399200 786.937927,348.593994 
	C786.498230,348.438904 786.058533,348.283813 785.618896,348.128723 
	C786.770630,335.989532 787.922363,323.850342 789.213135,310.245087 
	C770.487488,324.134247 752.792542,337.258850 734.969421,350.478546 
	C738.205139,356.415924 742.082031,361.805634 744.183289,367.816071 
	C746.892883,375.566681 749.220398,383.731720 749.865784,391.864807 
	C751.220093,408.930145 751.740845,426.087830 751.898376,443.214050 
	C752.034729,458.029694 751.443298,472.867828 750.635803,487.666656 
	C750.397888,492.026611 748.526917,496.354767 747.068604,500.581665 
	C736.091858,532.398560 720.084351,561.787292 703.333679,590.810913 
	C696.505676,602.641724 689.831543,614.566956 682.723938,626.227661 
	C680.155579,630.441162 676.792053,634.267639 673.329285,637.820251 
	C662.281189,649.155151 651.032227,660.294861 639.807983,671.456726 
	C638.763977,672.494995 637.344849,673.156067 636.099915,673.992249 
	C636.075989,674.570984 636.052002,675.149658 636.028076,675.728394 
	C636.686218,675.933411 637.378357,676.065552 637.997620,676.354004 
	C661.594482,687.346191 685.637939,695.951782 712.430420,693.998474 
	C736.141052,692.269958 759.919861,691.475708 783.668579,690.269043 
	C783.865295,690.844177 784.062012,691.419373 784.258728,691.994568 
	C782.757751,692.980408 781.280457,694.004639 779.752258,694.946289 
	C761.747986,706.039307 743.561340,716.849548 725.803833,728.324097 
	C717.577209,733.639893 709.131714,739.289978 702.627563,746.459656 
	C688.678589,761.836182 677.534485,778.735962 680.552979,801.424377 
	C682.713562,817.663879 683.708252,834.058533 685.336975,851.610779 
	C678.778625,844.534668 672.281189,838.360229 666.770508,831.404114 
	C655.394958,817.044678 644.436096,802.349731 633.512451,787.639404 
	C623.928345,774.732910 610.431702,770.756775 595.355774,770.722778 
	C581.450012,770.691467 568.408325,774.995483 555.851501,780.509155 
	C524.111633,794.446106 492.383942,808.673706 464.002594,828.754578 
	C448.151245,839.969849 434.078278,853.698608 419.203125,866.293884 
	C417.944702,867.359375 416.680267,868.417786 415.132965,869.719849 
	C413.801117,868.567322 412.595001,867.523621 410.798553,865.969055 
	C417.570892,858.140442 424.107574,850.461365 430.777313,842.899719 
	C444.460663,827.386719 457.627167,811.573914 467.539886,793.191467 
	C471.450195,785.940125 477.624451,779.948120 482.273621,773.049561 
	C497.728363,750.117371 512.666687,726.832886 528.346008,704.057251 
	C549.977722,672.635193 572.203674,641.622925 593.989197,610.305908 
	C614.689514,580.548828 632.333252,549.243591 645.687073,515.314636 
	C655.044739,491.538696 652.569885,469.185791 644.106506,446.043732 
M312.163239,632.671570 
	C446.119446,532.884644 580.075684,433.097656 714.795593,332.741791 
	C709.222778,328.174561 704.419739,323.545380 698.953735,319.914185 
	C689.820923,313.847107 679.952271,308.868225 670.950012,302.628235 
	C650.963379,288.774231 628.624023,281.207794 605.005859,276.996521 
	C589.781616,274.281952 574.370544,272.593842 559.177917,269.731079 
	C551.190430,268.225983 543.438171,267.401703 535.460632,269.113037 
	C526.680847,270.996460 517.853210,272.660004 509.089783,274.613708 
	C507.060272,275.066193 504.947632,275.972931 503.312714,277.238434 
	C489.225037,288.142914 474.943054,298.824829 461.285309,310.250000 
	C436.246277,331.195984 411.596375,352.606995 386.768524,373.805725 
	C385.725159,374.696564 384.523773,375.402344 383.086182,376.411896 
	C383.086182,353.924377 383.041046,332.122620 383.107391,310.321259 
	C383.135742,301.005402 383.102722,291.673248 383.640167,282.379883 
	C384.113434,274.196442 382.941559,272.804108 374.832703,274.482910 
	C349.264252,279.776642 325.419891,289.995453 301.798706,300.661194 
	C293.862701,304.244598 286.087433,306.963562 277.343048,306.047211 
	C268.071198,305.075562 258.827209,303.572449 249.532776,303.155609 
	C240.065125,302.731049 234.436356,298.663330 231.916046,289.435181 
	C230.741791,285.135620 228.143631,281.224945 225.752289,276.220062 
	C194.901443,295.102051 163.388474,310.980652 141.619583,339.791809 
	C145.501755,345.580048 150.742386,350.395752 159.125702,353.049316 
	C171.438980,356.946777 183.929932,361.331146 196.645554,362.683044 
	C220.457840,365.214752 244.474396,366.037659 268.430298,366.880371 
	C275.892731,367.142853 281.080597,369.317932 285.706268,375.235504 
	C289.286438,379.815613 291.015991,384.068329 291.001831,389.976593 
	C290.800507,473.954468 290.864624,557.932983 290.864624,641.911316 
	C290.864624,643.819092 290.864624,645.726807 290.864624,648.510925 
	C298.314606,642.956848 304.943481,638.014893 312.163239,632.671570 
z"/>
<path fill="#EEE85A" opacity="1.000000" stroke="none" 
	d="
M311.867798,632.872192 
	C304.943481,638.014893 298.314606,642.956848 290.864624,648.510925 
	C290.864624,645.726807 290.864624,643.819092 290.864624,641.911316 
	C290.864624,557.932983 290.800507,473.954468 291.001831,389.976593 
	C291.015991,384.068329 289.286438,379.815613 285.706268,375.235504 
	C281.080597,369.317932 275.892731,367.142853 268.430298,366.880371 
	C244.474396,366.037659 220.457840,365.214752 196.645554,362.683044 
	C183.929932,361.331146 171.438980,356.946777 159.125702,353.049316 
	C150.742386,350.395752 145.501755,345.580048 141.619583,339.791809 
	C163.388474,310.980652 194.901443,295.102051 225.752289,276.220062 
	C228.143631,281.224945 230.741791,285.135620 231.916046,289.435181 
	C234.436356,298.663330 240.065125,302.731049 249.532776,303.155609 
	C258.827209,303.572449 268.071198,305.075562 277.343048,306.047211 
	C286.087433,306.963562 293.862701,304.244598 301.798706,300.661194 
	C325.419891,289.995453 349.264252,279.776642 374.832703,274.482910 
	C382.941559,272.804108 384.113434,274.196442 383.640167,282.379883 
	C383.102722,291.673248 383.135742,301.005402 383.107391,310.321259 
	C383.041046,332.122620 383.086182,353.924377 383.086182,376.411896 
	C384.523773,375.402344 385.725159,374.696564 386.768524,373.805725 
	C411.596375,352.606995 436.246277,331.195984 461.285309,310.250000 
	C474.943054,298.824829 489.225037,288.142914 503.312714,277.238434 
	C504.947632,275.972931 507.060272,275.066193 509.089783,274.613708 
	C517.853210,272.660004 526.680847,270.996460 535.460632,269.113037 
	C543.438171,267.401703 551.190430,268.225983 559.177917,269.731079 
	C574.370544,272.593842 589.781616,274.281952 605.005859,276.996521 
	C628.624023,281.207794 650.963379,288.774231 670.950012,302.628235 
	C679.952271,308.868225 689.820923,313.847107 698.953735,319.914185 
	C704.419739,323.545380 709.222778,328.174561 714.795593,332.741791 
	C580.075684,433.097656 446.119446,532.884644 311.867798,632.872192 
M389.936707,550.064392 
	C441.509430,512.926453 493.095337,475.806763 544.648804,438.642090 
	C567.181946,422.398010 589.648743,406.061768 612.792664,389.537079 
	C614.116333,388.563599 615.440002,387.590149 616.937744,386.488678 
	C614.742737,384.028198 612.768494,381.787415 610.756287,379.581268 
	C610.312744,379.094910 609.779602,378.654388 609.211792,378.322601 
	C589.148560,366.599579 567.609558,360.186127 544.264709,359.961761 
	C513.718750,359.668182 485.513245,367.825043 458.966156,382.650421 
	C435.229309,395.906372 414.209045,412.479370 394.977417,431.690308 
	C386.029144,440.628967 380.513031,449.051422 381.447906,462.857483 
	C383.382111,491.421722 383.000732,520.142639 383.581207,548.798950 
	C383.614197,550.428833 383.732849,552.057007 383.853851,554.558655 
	C386.034729,552.831116 387.659058,551.544434 389.936707,550.064392 
z"/>
<path fill="#314E94" opacity="1.000000" stroke="none" 
	d="
M612.145691,389.767395 
	C589.648743,406.061768 567.181946,422.398010 544.648804,438.642090 
	C493.095337,475.806763 441.509430,512.926453 389.566650,549.677490 
	C389.161316,545.959106 389.166626,542.626648 389.084320,539.296265 
	C388.388855,511.162598 387.536499,483.031250 387.150391,454.893494 
	C387.102600,451.409088 388.790100,447.342834 390.944672,444.514557 
	C394.339722,440.057922 398.926971,436.530365 402.810699,432.421570 
	C418.265869,416.070557 436.079803,402.747528 455.361115,391.308716 
	C480.362396,376.476440 506.937134,366.356384 536.378479,366.019775 
	C546.974182,365.898682 557.766113,366.353088 568.151917,368.264496 
	C584.625183,371.296173 600.002930,377.451233 612.145691,389.767395 
z"/>
<path fill="#070705" opacity="1.000000" stroke="none" 
	d="
M612.469177,389.652222 
	C600.002930,377.451233 584.625183,371.296173 568.151917,368.264496 
	C557.766113,366.353088 546.974182,365.898682 536.378479,366.019775 
	C506.937134,366.356384 480.362396,376.476440 455.361115,391.308716 
	C436.079803,402.747528 418.265869,416.070557 402.810699,432.421570 
	C398.926971,436.530365 394.339722,440.057922 390.944672,444.514557 
	C388.790100,447.342834 387.102600,451.409088 387.150391,454.893494 
	C387.536499,483.031250 388.388855,511.162598 389.084320,539.296265 
	C389.166626,542.626648 389.161316,545.959106 389.239990,549.774231 
	C387.659058,551.544434 386.034729,552.831116 383.853851,554.558655 
	C383.732849,552.057007 383.614197,550.428833 383.581207,548.798950 
	C383.000732,520.142639 383.382111,491.421722 381.447906,462.857483 
	C380.513031,449.051422 386.029144,440.628967 394.977417,431.690308 
	C414.209045,412.479370 435.229309,395.906372 458.966156,382.650421 
	C485.513245,367.825043 513.718750,359.668182 544.264709,359.961761 
	C567.609558,360.186127 589.148560,366.599579 609.211792,378.322601 
	C609.779602,378.654388 610.312744,379.094910 610.756287,379.581268 
	C612.768494,381.787415 614.742737,384.028198 616.937744,386.488678 
	C615.440002,387.590149 614.116333,388.563599 612.469177,389.652222 
z"/>
</svg>